<?xml version="1.0" encoding="UTF-8" standalone="no"?>
<!DOCTYPE svg PUBLIC "-//W3C//DTD SVG 1.1//EN"
 "http://www.w3.org/Graphics/SVG/1.1/DTD/svg11.dtd">
<!-- Generated by graphviz version 2.26.3 (20100126.1600)
 -->
<!-- Title: controllers_diagram Pages: 1 -->
<svg width="660pt" height="546pt"
 viewBox="0.00 0.00 660.00 546.27" xmlns="http://www.w3.org/2000/svg" xmlns:xlink="http://www.w3.org/1999/xlink">
<g id="graph1" class="graph" transform="scale(1 1) rotate(0) translate(4 542.275)">
<title>controllers_diagram</title>
<polygon fill="white" stroke="white" points="-4,5 -4,-542.275 657,-542.275 657,5 -4,5"/>
<!-- _diagram_info -->
<g id="node1" class="node"><title>_diagram_info</title>
<text text-anchor="start" x="409" y="-278.3" font-family="Times Roman,serif" font-size="13.00">Controllers diagram</text>
<text text-anchor="start" x="409" y="-261.3" font-family="Times Roman,serif" font-size="13.00">Date: Dec 15 2013 &#45; 17:54</text>
<text text-anchor="start" x="409" y="-244.3" font-family="Times Roman,serif" font-size="13.00">Migration version: 20131208231009</text>
<text text-anchor="start" x="409" y="-227.3" font-family="Times Roman,serif" font-size="13.00">Generated by RailRoady 1.1.1</text>
<text text-anchor="start" x="409" y="-210.3" font-family="Times Roman,serif" font-size="13.00">http://railroady.prestonlee.com</text>
</g>
<!-- ApplicationController -->
<g id="node2" class="node"><title>ApplicationController</title>
<polyline fill="none" stroke="black" points="130.639,-213.94 276.639,-213.94 "/>
<path fill="none" stroke="black" d="M276.639,-213.94C282.639,-213.94 288.639,-219.94 288.639,-225.94"/>
<polyline fill="none" stroke="black" points="288.639,-225.94 288.639,-321.94 "/>
<path fill="none" stroke="black" d="M288.639,-321.94C288.639,-327.94 282.639,-333.94 276.639,-333.94"/>
<polyline fill="none" stroke="black" points="276.639,-333.94 130.639,-333.94 "/>
<path fill="none" stroke="black" d="M130.639,-333.94C124.639,-333.94 118.639,-327.94 118.639,-321.94"/>
<polyline fill="none" stroke="black" points="118.639,-321.94 118.639,-225.94 "/>
<path fill="none" stroke="black" d="M118.639,-225.94C118.639,-219.94 124.639,-213.94 130.639,-213.94"/>
<text text-anchor="middle" x="203.639" y="-317.34" font-family="Times Roman,serif" font-size="14.00">ApplicationController</text>
<polyline fill="none" stroke="black" points="118.639,-307.94 288.639,-307.94 "/>
<text text-anchor="start" x="126.639" y="-291.34" font-family="Times Roman,serif" font-size="14.00">after_sign_in_path_for</text>
<text text-anchor="start" x="126.639" y="-273.34" font-family="Times Roman,serif" font-size="14.00">page_not_found</text>
<polyline fill="none" stroke="black" points="118.639,-263.94 288.639,-263.94 "/>
<polyline fill="none" stroke="black" points="118.639,-239.94 288.639,-239.94 "/>
<text text-anchor="start" x="126.639" y="-223.34" font-family="Times Roman,serif" font-size="14.00">_layout</text>
</g>
<!-- HomeController -->
<g id="node3" class="node"><title>HomeController</title>
<polyline fill="none" stroke="black" points="294.64,-48.7029 395.64,-48.7029 "/>
<path fill="none" stroke="black" d="M395.64,-48.7029C401.64,-48.7029 407.64,-54.7029 407.64,-60.7029"/>
<polyline fill="none" stroke="black" points="407.64,-60.7029 407.64,-136.703 "/>
<path fill="none" stroke="black" d="M407.64,-136.703C407.64,-142.703 401.64,-148.703 395.64,-148.703"/>
<polyline fill="none" stroke="black" points="395.64,-148.703 294.64,-148.703 "/>
<path fill="none" stroke="black" d="M294.64,-148.703C288.64,-148.703 282.64,-142.703 282.64,-136.703"/>
<polyline fill="none" stroke="black" points="282.64,-136.703 282.64,-60.7029 "/>
<path fill="none" stroke="black" d="M282.64,-60.7029C282.64,-54.7029 288.64,-48.7029 294.64,-48.7029"/>
<text text-anchor="middle" x="345.14" y="-132.103" font-family="Times Roman,serif" font-size="14.00">HomeController</text>
<polyline fill="none" stroke="black" points="282.64,-122.703 407.64,-122.703 "/>
<polyline fill="none" stroke="black" points="282.64,-98.7029 407.64,-98.7029 "/>
<polyline fill="none" stroke="black" points="282.64,-74.7029 407.64,-74.7029 "/>
<text text-anchor="start" x="290.64" y="-58.1029" font-family="Times Roman,serif" font-size="14.00">_layout</text>
</g>
<!-- ApplicationController&#45;&gt;HomeController -->
<g id="edge2" class="edge"><title>ApplicationController&#45;&gt;HomeController</title>
<path fill="none" stroke="black" d="M252.336,-213.633C269.364,-192.545 288.286,-169.112 304.578,-148.935"/>
</g>
<!-- LogsController -->
<g id="node4" class="node"><title>LogsController</title>
<polyline fill="none" stroke="black" points="17.5527,-1.5 110.553,-1.5 "/>
<path fill="none" stroke="black" d="M110.553,-1.5C116.553,-1.5 122.553,-7.5 122.553,-13.5"/>
<polyline fill="none" stroke="black" points="122.553,-13.5 122.553,-181.5 "/>
<path fill="none" stroke="black" d="M122.553,-181.5C122.553,-187.5 116.553,-193.5 110.553,-193.5"/>
<polyline fill="none" stroke="black" points="110.553,-193.5 17.5527,-193.5 "/>
<path fill="none" stroke="black" d="M17.5527,-193.5C11.5527,-193.5 5.55265,-187.5 5.55265,-181.5"/>
<polyline fill="none" stroke="black" points="5.55265,-181.5 5.55265,-13.5 "/>
<path fill="none" stroke="black" d="M5.55265,-13.5C5.55265,-7.5 11.5527,-1.5 17.5527,-1.5"/>
<text text-anchor="middle" x="64.0527" y="-176.9" font-family="Times Roman,serif" font-size="14.00">LogsController</text>
<polyline fill="none" stroke="black" points="5.55265,-167.5 122.553,-167.5 "/>
<text text-anchor="start" x="13.5527" y="-150.9" font-family="Times Roman,serif" font-size="14.00">create</text>
<text text-anchor="start" x="13.5527" y="-132.9" font-family="Times Roman,serif" font-size="14.00">destroy</text>
<text text-anchor="start" x="13.5527" y="-114.9" font-family="Times Roman,serif" font-size="14.00">index</text>
<text text-anchor="start" x="13.5527" y="-96.9" font-family="Times Roman,serif" font-size="14.00">log_params</text>
<text text-anchor="start" x="13.5527" y="-78.9" font-family="Times Roman,serif" font-size="14.00">new</text>
<text text-anchor="start" x="13.5527" y="-60.9" font-family="Times Roman,serif" font-size="14.00">show</text>
<polyline fill="none" stroke="black" points="5.55265,-51.5 122.553,-51.5 "/>
<polyline fill="none" stroke="black" points="5.55265,-27.5 122.553,-27.5 "/>
<text text-anchor="start" x="13.5527" y="-10.9" font-family="Times Roman,serif" font-size="14.00">_layout</text>
</g>
<!-- ApplicationController&#45;&gt;LogsController -->
<g id="edge4" class="edge"><title>ApplicationController&#45;&gt;LogsController</title>
<path fill="none" stroke="black" d="M155.992,-213.713C145.251,-200.136 133.729,-185.572 122.599,-171.504"/>
</g>
<!-- UsersController -->
<g id="node5" class="node"><title>UsersController</title>
<polyline fill="none" stroke="black" points="13,-370.967 113,-370.967 "/>
<path fill="none" stroke="black" d="M113,-370.967C119,-370.967 125,-376.967 125,-382.967"/>
<polyline fill="none" stroke="black" points="125,-382.967 125,-514.967 "/>
<path fill="none" stroke="black" d="M125,-514.967C125,-520.967 119,-526.967 113,-526.967"/>
<polyline fill="none" stroke="black" points="113,-526.967 13,-526.967 "/>
<path fill="none" stroke="black" d="M13,-526.967C7,-526.967 1,-520.967 1,-514.967"/>
<polyline fill="none" stroke="black" points="1,-514.967 1,-382.967 "/>
<path fill="none" stroke="black" d="M1,-382.967C1,-376.967 7,-370.967 13,-370.967"/>
<text text-anchor="middle" x="63" y="-510.367" font-family="Times Roman,serif" font-size="14.00">UsersController</text>
<polyline fill="none" stroke="black" points="1,-500.967 125,-500.967 "/>
<text text-anchor="start" x="9" y="-484.367" font-family="Times Roman,serif" font-size="14.00">create</text>
<text text-anchor="start" x="9" y="-466.367" font-family="Times Roman,serif" font-size="14.00">index</text>
<text text-anchor="start" x="9" y="-448.367" font-family="Times Roman,serif" font-size="14.00">new</text>
<text text-anchor="start" x="9" y="-430.367" font-family="Times Roman,serif" font-size="14.00">show</text>
<polyline fill="none" stroke="black" points="1,-420.967 125,-420.967 "/>
<polyline fill="none" stroke="black" points="1,-396.967 125,-396.967 "/>
<text text-anchor="start" x="9" y="-380.367" font-family="Times Roman,serif" font-size="14.00">_layout</text>
</g>
<!-- ApplicationController&#45;&gt;UsersController -->
<g id="edge6" class="edge"><title>ApplicationController&#45;&gt;UsersController</title>
<path fill="none" stroke="black" d="M155.239,-334.174C145.545,-346.238 135.234,-359.07 125.15,-371.62"/>
</g>
<!-- EntriesController -->
<g id="node6" class="node"><title>EntriesController</title>
<polyline fill="none" stroke="black" points="289.223,-362.775 399.223,-362.775 "/>
<path fill="none" stroke="black" d="M399.223,-362.775C405.223,-362.775 411.223,-368.775 411.223,-374.775"/>
<polyline fill="none" stroke="black" points="411.223,-374.775 411.223,-524.775 "/>
<path fill="none" stroke="black" d="M411.223,-524.775C411.223,-530.775 405.223,-536.775 399.223,-536.775"/>
<polyline fill="none" stroke="black" points="399.223,-536.775 289.223,-536.775 "/>
<path fill="none" stroke="black" d="M289.223,-536.775C283.223,-536.775 277.223,-530.775 277.223,-524.775"/>
<polyline fill="none" stroke="black" points="277.223,-524.775 277.223,-374.775 "/>
<path fill="none" stroke="black" d="M277.223,-374.775C277.223,-368.775 283.223,-362.775 289.223,-362.775"/>
<text text-anchor="middle" x="344.223" y="-520.175" font-family="Times Roman,serif" font-size="14.00">EntriesController</text>
<polyline fill="none" stroke="black" points="277.223,-510.775 411.223,-510.775 "/>
<text text-anchor="start" x="285.223" y="-494.175" font-family="Times Roman,serif" font-size="14.00">create</text>
<text text-anchor="start" x="285.223" y="-476.175" font-family="Times Roman,serif" font-size="14.00">create_many</text>
<text text-anchor="start" x="285.223" y="-458.175" font-family="Times Roman,serif" font-size="14.00">index</text>
<text text-anchor="start" x="285.223" y="-440.175" font-family="Times Roman,serif" font-size="14.00">new</text>
<text text-anchor="start" x="285.223" y="-422.175" font-family="Times Roman,serif" font-size="14.00">show</text>
<polyline fill="none" stroke="black" points="277.223,-412.775 411.223,-412.775 "/>
<polyline fill="none" stroke="black" points="277.223,-388.775 411.223,-388.775 "/>
<text text-anchor="start" x="285.223" y="-372.175" font-family="Times Roman,serif" font-size="14.00">_layout</text>
</g>
<!-- ApplicationController&#45;&gt;EntriesController -->
<g id="edge8" class="edge"><title>ApplicationController&#45;&gt;EntriesController</title>
<path fill="none" stroke="black" d="M251.627,-333.96C259.82,-344.208 268.464,-355.019 277.046,-365.753"/>
</g>
</g>
</svg>
