<?xml version="1.0" encoding="UTF-8" standalone="no"?>
<!DOCTYPE svg PUBLIC "-//W3C//DTD SVG 1.1//EN"
 "http://www.w3.org/Graphics/SVG/1.1/DTD/svg11.dtd">
<!-- Generated by graphviz version 2.26.3 (20100126.1600)
 -->
<!-- Title: models_diagram Pages: 1 -->
<svg width="484pt" height="324pt"
 viewBox="0.00 0.00 484.00 324.00" xmlns="http://www.w3.org/2000/svg" xmlns:xlink="http://www.w3.org/1999/xlink">
<g id="graph1" class="graph" transform="scale(1 1) rotate(0) translate(4 320)">
<title>models_diagram</title>
<polygon fill="white" stroke="white" points="-4,5 -4,-320 481,-320 481,5 -4,5"/>
<!-- _diagram_info -->
<g id="node1" class="node"><title>_diagram_info</title>
<text text-anchor="start" x="8" y="-299.8" font-family="Times Roman,serif" font-size="13.00">Models diagram</text>
<text text-anchor="start" x="8" y="-282.8" font-family="Times Roman,serif" font-size="13.00">Date: Dec 15 2013 &#45; 17:54</text>
<text text-anchor="start" x="8" y="-265.8" font-family="Times Roman,serif" font-size="13.00">Migration version: 20131208231009</text>
<text text-anchor="start" x="8" y="-248.8" font-family="Times Roman,serif" font-size="13.00">Generated by RailRoady 1.1.1</text>
<text text-anchor="start" x="8" y="-231.8" font-family="Times Roman,serif" font-size="13.00">http://railroady.prestonlee.com</text>
</g>
<!-- Log -->
<g id="node2" class="node"><title>Log</title>
<ellipse fill="none" stroke="black" cx="372" cy="-93" rx="28.9914" ry="18.3848"/>
<text text-anchor="middle" x="372" y="-89.4" font-family="Times Roman,serif" font-size="14.00">Log</text>
</g>
<!-- Entry -->
<g id="node3" class="node"><title>Entry</title>
<ellipse fill="none" stroke="black" cx="403" cy="-19" rx="38.8909" ry="18.3848"/>
<text text-anchor="middle" x="403" y="-15.4" font-family="Times Roman,serif" font-size="14.00">Entry</text>
</g>
<!-- Log&#45;&gt;Entry -->
<g id="edge2" class="edge"><title>Log&#45;&gt;Entry</title>
<path fill="none" stroke="#9ba2f9" d="M382.705,-67.4456C385.501,-60.7726 388.527,-53.5486 391.368,-46.7667"/>
<ellipse fill="none" stroke="#9ba2f9" cx="381.05" cy="-71.3973" rx="4.00001" ry="4.00001"/>
<polygon fill="#9ba2f9" stroke="#9ba2f9" points="391.486,-46.4858 399.5,-39.0012 393.418,-41.8742 395.35,-37.2625 395.35,-37.2625 395.35,-37.2625 393.418,-41.8742 391.199,-35.5237 391.486,-46.4858 391.486,-46.4858"/>
</g>
<!-- User -->
<g id="node4" class="node"><title>User</title>
<ellipse fill="none" stroke="black" cx="372" cy="-167" rx="33.9411" ry="18.3848"/>
<text text-anchor="middle" x="372" y="-163.4" font-family="Times Roman,serif" font-size="14.00">User</text>
</g>
<!-- User&#45;&gt;Log -->
<g id="edge8" class="edge"><title>User&#45;&gt;Log</title>
<path fill="none" stroke="#ab4d6d" d="M372,-140.309C372,-134.377 372,-128.061 372,-122.04"/>
<ellipse fill="none" stroke="#ab4d6d" cx="372" cy="-144.327" rx="4" ry="4"/>
<polygon fill="#ab4d6d" stroke="#ab4d6d" points="372,-121.667 376.5,-111.667 372,-116.667 372,-111.667 372,-111.667 372,-111.667 372,-116.667 367.5,-111.667 372,-121.667 372,-121.667"/>
</g>
<!-- ActiveRecord::Base -->
<g id="node6" class="node"><title>ActiveRecord::Base</title>
<ellipse fill="none" stroke="black" cx="372" cy="-269" rx="104.151" ry="18.3848"/>
<text text-anchor="middle" x="372" y="-265.4" font-family="Times Roman,serif" font-size="14.00">ActiveRecord::Base</text>
</g>
<!-- ActiveRecord::Base&#45;&gt;Log -->
<g id="edge4" class="edge"><title>ActiveRecord::Base&#45;&gt;Log</title>
<path fill="none" stroke="black" d="M357.409,-250.589C340.491,-226.904 316.437,-184.465 329,-148 334.211,-132.873 345.481,-118.723 355.175,-108.564"/>
</g>
<!-- ActiveRecord::Base&#45;&gt;Entry -->
<g id="edge6" class="edge"><title>ActiveRecord::Base&#45;&gt;Entry</title>
<path fill="none" stroke="black" d="M384.84,-250.581C395.281,-234.408 409.199,-209.809 415,-186 427.834,-133.329 415.599,-68.7688 408.011,-37.5964"/>
</g>
<!-- ActiveRecord::Base&#45;&gt;User -->
<g id="edge10" class="edge"><title>ActiveRecord::Base&#45;&gt;User</title>
<path fill="none" stroke="black" d="M372,-250.292C372,-231.888 372,-203.953 372,-185.59"/>
</g>
</g>
</svg>
