<?xml version="1.0" encoding="UTF-8" standalone="no"?>
<!DOCTYPE svg PUBLIC "-//W3C//DTD SVG 1.1//EN"
 "http://www.w3.org/Graphics/SVG/1.1/DTD/svg11.dtd">
<!-- Generated by graphviz version 2.26.3 (20100126.1600)
 -->
<!-- Title: models_diagram Pages: 1 -->
<svg width="565pt" height="930pt"
 viewBox="0.00 0.00 565.18 930.00" xmlns="http://www.w3.org/2000/svg" xmlns:xlink="http://www.w3.org/1999/xlink">
<g id="graph1" class="graph" transform="scale(1 1) rotate(0) translate(4 926)">
<title>models_diagram</title>
<polygon fill="white" stroke="white" points="-4,5 -4,-926 562.176,-926 562.176,5 -4,5"/>
<!-- _diagram_info -->
<g id="node1" class="node"><title>_diagram_info</title>
<text text-anchor="start" x="8" y="-905.8" font-family="Times Roman,serif" font-size="13.00">Models diagram</text>
<text text-anchor="start" x="8" y="-888.8" font-family="Times Roman,serif" font-size="13.00">Date: Dec 15 2013 &#45; 17:54</text>
<text text-anchor="start" x="8" y="-871.8" font-family="Times Roman,serif" font-size="13.00">Migration version: 20131208231009</text>
<text text-anchor="start" x="8" y="-854.8" font-family="Times Roman,serif" font-size="13.00">Generated by RailRoady 1.1.1</text>
<text text-anchor="start" x="8" y="-837.8" font-family="Times Roman,serif" font-size="13.00">http://railroady.prestonlee.com</text>
</g>
<!-- Log -->
<g id="node2" class="node"><title>Log</title>
<polyline fill="none" stroke="black" points="301.5,-361 442.5,-361 "/>
<path fill="none" stroke="black" d="M442.5,-361C448.5,-361 454.5,-367 454.5,-373"/>
<polyline fill="none" stroke="black" points="454.5,-373 454.5,-473 "/>
<path fill="none" stroke="black" d="M454.5,-473C454.5,-479 448.5,-485 442.5,-485"/>
<polyline fill="none" stroke="black" points="442.5,-485 301.5,-485 "/>
<path fill="none" stroke="black" d="M301.5,-485C295.5,-485 289.5,-479 289.5,-473"/>
<polyline fill="none" stroke="black" points="289.5,-473 289.5,-373 "/>
<path fill="none" stroke="black" d="M289.5,-373C289.5,-367 295.5,-361 301.5,-361"/>
<text text-anchor="middle" x="372" y="-468.4" font-family="Times Roman,serif" font-size="14.00">Log</text>
<polyline fill="none" stroke="black" points="289.5,-459 454.5,-459 "/>
<text text-anchor="start" x="297.5" y="-442.4" font-family="Times Roman,serif" font-size="14.00">id :integer</text>
<text text-anchor="start" x="297.5" y="-424.4" font-family="Times Roman,serif" font-size="14.00">name :string</text>
<text text-anchor="start" x="297.5" y="-406.4" font-family="Times Roman,serif" font-size="14.00">user_id :integer</text>
<text text-anchor="start" x="297.5" y="-388.4" font-family="Times Roman,serif" font-size="14.00">created_at :datetime</text>
<text text-anchor="start" x="297.5" y="-370.4" font-family="Times Roman,serif" font-size="14.00">updated_at :datetime</text>
</g>
<!-- Entry -->
<g id="node3" class="node"><title>Entry</title>
<polyline fill="none" stroke="black" points="378.5,-1 519.5,-1 "/>
<path fill="none" stroke="black" d="M519.5,-1C525.5,-1 531.5,-7 531.5,-13"/>
<polyline fill="none" stroke="black" points="531.5,-13 531.5,-311 "/>
<path fill="none" stroke="black" d="M531.5,-311C531.5,-317 525.5,-323 519.5,-323"/>
<polyline fill="none" stroke="black" points="519.5,-323 378.5,-323 "/>
<path fill="none" stroke="black" d="M378.5,-323C372.5,-323 366.5,-317 366.5,-311"/>
<polyline fill="none" stroke="black" points="366.5,-311 366.5,-13 "/>
<path fill="none" stroke="black" d="M366.5,-13C366.5,-7 372.5,-1 378.5,-1"/>
<text text-anchor="middle" x="449" y="-306.4" font-family="Times Roman,serif" font-size="14.00">Entry</text>
<polyline fill="none" stroke="black" points="366.5,-297 531.5,-297 "/>
<text text-anchor="start" x="374.5" y="-280.4" font-family="Times Roman,serif" font-size="14.00">id :integer</text>
<text text-anchor="start" x="374.5" y="-262.4" font-family="Times Roman,serif" font-size="14.00">log_id :integer</text>
<text text-anchor="start" x="374.5" y="-244.4" font-family="Times Roman,serif" font-size="14.00">date :string</text>
<text text-anchor="start" x="374.5" y="-226.4" font-family="Times Roman,serif" font-size="14.00">time :string</text>
<text text-anchor="start" x="374.5" y="-208.4" font-family="Times Roman,serif" font-size="14.00">protocol :string</text>
<text text-anchor="start" x="374.5" y="-190.4" font-family="Times Roman,serif" font-size="14.00">conn_type :string</text>
<text text-anchor="start" x="374.5" y="-172.4" font-family="Times Roman,serif" font-size="14.00">src_port :integer</text>
<text text-anchor="start" x="374.5" y="-154.4" font-family="Times Roman,serif" font-size="14.00">dest_port :integer</text>
<text text-anchor="start" x="374.5" y="-136.4" font-family="Times Roman,serif" font-size="14.00">src_ip :string</text>
<text text-anchor="start" x="374.5" y="-118.4" font-family="Times Roman,serif" font-size="14.00">dest_ip :string</text>
<text text-anchor="start" x="374.5" y="-100.4" font-family="Times Roman,serif" font-size="14.00">info :string</text>
<text text-anchor="start" x="374.5" y="-82.4" font-family="Times Roman,serif" font-size="14.00">environment :string</text>
<text text-anchor="start" x="374.5" y="-64.4" font-family="Times Roman,serif" font-size="14.00">created_at :datetime</text>
<text text-anchor="start" x="374.5" y="-46.4" font-family="Times Roman,serif" font-size="14.00">updated_at :datetime</text>
<text text-anchor="start" x="374.5" y="-28.4" font-family="Times Roman,serif" font-size="14.00">src_port_id :integer</text>
<text text-anchor="start" x="374.5" y="-10.4" font-family="Times Roman,serif" font-size="14.00">dest_port_id :integer</text>
</g>
<!-- Log&#45;&gt;Entry -->
<g id="edge2" class="edge"><title>Log&#45;&gt;Entry</title>
<path fill="none" stroke="#75bcfa" d="M392.664,-352.956C394.595,-346.412 396.602,-339.608 398.66,-332.634"/>
<ellipse fill="none" stroke="#75bcfa" cx="391.477" cy="-356.979" rx="4.00001" ry="4.00001"/>
<polygon fill="#75bcfa" stroke="#75bcfa" points="398.664,-332.619 405.81,-324.301 400.079,-327.824 401.494,-323.028 401.494,-323.028 401.494,-323.028 400.079,-327.824 397.178,-321.755 398.664,-332.619 398.664,-332.619"/>
</g>
<!-- User -->
<g id="node4" class="node"><title>User</title>
<polyline fill="none" stroke="black" points="257,-523 487,-523 "/>
<path fill="none" stroke="black" d="M487,-523C493,-523 499,-529 499,-535"/>
<polyline fill="none" stroke="black" points="499,-535 499,-779 "/>
<path fill="none" stroke="black" d="M499,-779C499,-785 493,-791 487,-791"/>
<polyline fill="none" stroke="black" points="487,-791 257,-791 "/>
<path fill="none" stroke="black" d="M257,-791C251,-791 245,-785 245,-779"/>
<polyline fill="none" stroke="black" points="245,-779 245,-535 "/>
<path fill="none" stroke="black" d="M245,-535C245,-529 251,-523 257,-523"/>
<text text-anchor="middle" x="372" y="-774.4" font-family="Times Roman,serif" font-size="14.00">User</text>
<polyline fill="none" stroke="black" points="245,-765 499,-765 "/>
<text text-anchor="start" x="253" y="-748.4" font-family="Times Roman,serif" font-size="14.00">id :integer</text>
<text text-anchor="start" x="253" y="-730.4" font-family="Times Roman,serif" font-size="14.00">created_at :datetime</text>
<text text-anchor="start" x="253" y="-712.4" font-family="Times Roman,serif" font-size="14.00">updated_at :datetime</text>
<text text-anchor="start" x="253" y="-694.4" font-family="Times Roman,serif" font-size="14.00">email :string</text>
<text text-anchor="start" x="253" y="-676.4" font-family="Times Roman,serif" font-size="14.00">encrypted_password :string</text>
<text text-anchor="start" x="253" y="-658.4" font-family="Times Roman,serif" font-size="14.00">reset_password_token :string</text>
<text text-anchor="start" x="253" y="-640.4" font-family="Times Roman,serif" font-size="14.00">reset_password_sent_at :datetime</text>
<text text-anchor="start" x="253" y="-622.4" font-family="Times Roman,serif" font-size="14.00">remember_created_at :datetime</text>
<text text-anchor="start" x="253" y="-604.4" font-family="Times Roman,serif" font-size="14.00">sign_in_count :integer</text>
<text text-anchor="start" x="253" y="-586.4" font-family="Times Roman,serif" font-size="14.00">current_sign_in_at :datetime</text>
<text text-anchor="start" x="253" y="-568.4" font-family="Times Roman,serif" font-size="14.00">last_sign_in_at :datetime</text>
<text text-anchor="start" x="253" y="-550.4" font-family="Times Roman,serif" font-size="14.00">current_sign_in_ip :string</text>
<text text-anchor="start" x="253" y="-532.4" font-family="Times Roman,serif" font-size="14.00">last_sign_in_ip :string</text>
</g>
<!-- User&#45;&gt;Log -->
<g id="edge8" class="edge"><title>User&#45;&gt;Log</title>
<path fill="none" stroke="#3ef604" d="M372,-514.689C372,-508.159 372,-501.74 372,-495.517"/>
<ellipse fill="none" stroke="#3ef604" cx="372" cy="-518.916" rx="4" ry="4"/>
<polygon fill="#3ef604" stroke="#3ef604" points="372,-495.247 376.5,-485.247 372,-490.247 372,-485.247 372,-485.247 372,-485.247 372,-490.247 367.5,-485.247 372,-495.247 372,-495.247"/>
</g>
<!-- ActiveRecord::Base -->
<g id="node6" class="node"><title>ActiveRecord::Base</title>
<ellipse fill="none" stroke="black" cx="372" cy="-875" rx="104.151" ry="18.3848"/>
<text text-anchor="middle" x="372" y="-871.4" font-family="Times Roman,serif" font-size="14.00">ActiveRecord::Base</text>
</g>
<!-- ActiveRecord::Base&#45;&gt;Log -->
<g id="edge4" class="edge"><title>ActiveRecord::Base&#45;&gt;Log</title>
<path fill="none" stroke="black" d="M321.821,-858.726C291.097,-845.865 254.276,-824.564 236,-792 177.27,-687.354 181.57,-628.946 236,-522 247.856,-498.706 268.045,-479.599 289.291,-464.598"/>
</g>
<!-- ActiveRecord::Base&#45;&gt;Entry -->
<g id="edge6" class="edge"><title>ActiveRecord::Base&#45;&gt;Entry</title>
<path fill="none" stroke="black" d="M422.179,-858.726C452.903,-845.865 489.724,-824.564 508,-792 588.579,-648.423 554.586,-457.027 512.554,-323.014"/>
</g>
<!-- ActiveRecord::Base&#45;&gt;User -->
<g id="edge10" class="edge"><title>ActiveRecord::Base&#45;&gt;User</title>
<path fill="none" stroke="black" d="M372,-856.413C372,-840.814 372,-816.987 372,-791.166"/>
</g>
</g>
</svg>
